# xmcd
#
# Track frame offsets:
#	150
#	19239
#	36285
#	55219
#	72601
#	88093
#	103391
#	119688
#	140722
#	159689
#
# Disc length: 2369 seconds
#
# Revision: 0
# Processed by: cddbd v1.5.2PL0 Copyright (c) Steve Scherf et al.
# Submitted via: audiograbber 1.83.01
#
DISCID=9d093f0a
DTITLE=Joe Ely - Down On The Drag
DYEAR=1979
DGENRE=Country
TTITLE0=Fools Fall In Love
TTITLE1=B.B.Q. and Foam
TTITLE2=Standin' At The Big Hotel
TTITLE3=Crazy Lemon
TTITLE4=Crawdad Train
TTITLE5=In Another World
TTITLE6=She Leaves You Where You Are
TTITLE7=Down On The Drag
TTITLE8=Time For Travelin'
TTITLE9=Maria
EXTD=
EXTT0=
EXTT1=
EXTT2=
EXTT3=
EXTT4=
EXTT5=
EXTT6=
EXTT7=
EXTT8=
EXTT9=
PLAYORDER=
